#!OML:ASF H:\Dans Jumps\Project 1\Capture day 1\Session 1\subject.ASF
:FULLY-SPECIFIED
:DEGREES
341
root 0.397371 21.0371 -7.66023 10.2783 2.07418 -0.11191
lowerback -2.29517 -1.2911 -2.70269
upperback 3.06771 -1.67609 1.77903
thorax 4.59139 -0.958461 3.2528
lowerneck -5.39788 0.618992 -3.08505
upperneck 22.6317 0.952223 1.47125
head 7.82824 0.327818 1.0867
rclavicle -3.72721e-015 -1.39149e-015
rhumerus -21.2027 -9.32244 -81.258
rradius 29.1967
rwrist 32.3567
rhand -20.5938 -27.9577
rfingers 7.12502
rthumb 5.76652 -57.8593
lclavicle -3.72721e-015 -1.39149e-015
lhumerus -14.856 -4.01204 85.9606
lradius 16.7859
lwrist 8.19171
lhand -24.7542 -6.52978
lfingers 7.12502
lthumb 1.74893 23.4428
rfemur -16.4948 -4.82258 18.4779
rtibia 41.9982
rfoot 27.7026 -8.29374
rtoes 26.6802
lfemur -17.4211 6.34104 -15.6865
ltibia 41.7841
lfoot 28.05 -1.29037
ltoes 5.11651
342
root 0.395841 21.1948 -7.56193 9.64948 2.09722 -0.182616
lowerback -1.15251 -1.24492 -2.68858
upperback 3.35853 -1.64043 1.83446
thorax 4.2439 -0.940403 3.32483
lowerneck -5.63506 0.58912 -3.1153
upperneck 22.77 0.926106 1.45846
head 7.91819 0.311012 1.08815
rclavicle 3.07122e-014 -1.31198e-014
rhumerus -21.1248 -10.0711 -81.1527
rradius 28.804
rwrist 32.7922
rhand -20.4644 -28.0096
rfingers 7.12502
rthumb 5.89145 -57.9077
lclavicle 3.07122e-014 -1.31198e-014
lhumerus -14.8225 -3.6192 86.1203
lradius 16.6754
lwrist 8.44169
lhand -24.4289 -6.33181
lfingers 7.12502
lthumb 2.06314 23.638
rfemur -17.4367 -5.01222 18.6679
rtibia 44.2729
rfoot 27.3065 -8.01951
rtoes 26.7513
lfemur -18.3636 6.65577 -15.6922
ltibia 44.0354
lfoot 27.4777 -1.22665
ltoes 5.9183
343
root 0.394837 21.3433 -7.46399 9.00455 2.13014 -0.302616
lowerback 0.0717333 -1.19813 -2.60651
upperback 3.63758 -1.60623 1.90158
thorax 3.83716 -0.919803 3.37201
lowerneck -5.85404 0.561428 -3.10897
upperneck 22.8929 0.908329 1.3956
head 8.00032 0.296654 1.06716
rclavicle -3.97569e-016 4.17448e-015
rhumerus -21.0738 -10.8022 -81.0553
rradius 28.4093
rwrist 33.1477
rhand -20.3228 -28.075
rfingers 7.12502
rthumb 6.02817 -57.9693
lclavicle -3.97569e-016 4.17448e-015
lhumerus -14.8136 -3.19159 86.2812
lradius 16.506
lwrist 8.51099
lhand -24.1351 -6.12608
lfingers 7.12502
lthumb 2.3469 23.8408
rfemur -18.3886 -5.25762 18.9065
rtibia 46.4177
rfoot 26.6795 -7.48926
rtoes 26.3588
lfemur -19.2719 6.98928 -15.6456
ltibia 46.0009
lfoot 26.6595 -1.2493
ltoes 6.25459
344
root 0.39421 21.482 -7.36594 8.41238 2.17692 -0.454437
lowerback 1.29535 -1.15803 -2.47214
upperback 3.88091 -1.57838 1.97267
thorax 3.39429 -0.899655 3.39373
lowerneck -6.05553 0.537473 -3.07116
upperneck 23.0227 0.897128 1.30352
head 8.08194 0.285133 1.03152
rclavicle 1.28216e-014 3.77691e-015
rhumerus -21.0572 -11.5114 -80.9722
rradius 28.0098
rwrist 33.4468
rhand -20.1941 -28.1477
rfingers 7.12502
rthumb 6.1524 -58.0383
lclavicle 1.28216e-014 3.77691e-015
lhumerus -14.8351 -2.73833 86.4322
lradius 16.2608
lwrist 8.32977
lhand -23.8885 -5.97241
lfingers 7.12502
lthumb 2.58506 23.9917
rfemur -19.4265 -5.55203 19.1865
rtibia 48.4189
rfoot 25.8475 -6.88698
rtoes 25.7613
lfemur -20.2064 7.33728 -15.5781
ltibia 47.6564
lfoot 25.6498 -1.26298
ltoes 6.2668
345
root 0.393582 21.6092 -7.26805 7.93184 2.23243 -0.611232
lowerback 2.45361 -1.12959 -2.32241
upperback 4.07671 -1.56052 2.04442
thorax 2.94137 -0.883314 3.40648
lowerneck -6.27931 0.518795 -3.02061
upperneck 23.1869 0.893188 1.20705
head 8.17938 0.277255 0.993133
rclavicle 1.19271e-015 1.33186e-014
rhumerus -21.0647 -12.1535 -80.9109
rradius 27.6193
rwrist 33.6838
rhand -20.0935 -28.2074
rfingers 7.12502
rthumb 6.24958 -58.0952
lclavicle 1.19271e-015 1.33186e-014
lhumerus -14.8778 -2.23534 86.5673
lradius 15.9393
lwrist 7.85178
lhand -23.7086 -5.9128
lfingers 7.12502
lthumb 2.75877 24.0491
rfemur -20.6194 -5.87461 19.4922
rtibia 50.2701
rfoot 24.8568 -6.34611
rtoes 25.1835
lfemur -21.2276 7.69852 -15.5329
ltibia 49.0125
lfoot 24.5063 -1.19603
ltoes 6.07508
346
root 0.392752 21.7239 -7.17095 7.60791 2.2972 -0.756071
lowerback 3.49585 -1.11455 -2.17827
upperback 4.21805 -1.55425 2.11228
thorax 2.50027 -0.872487 3.41678
lowerneck -6.54577 0.507401 -2.9499
upperneck 23.3928 0.898616 1.10709
head 8.29891 0.274644 0.951376
rclavicle 1.45113e-014 -2.26615e-014
rhumerus -21.0735 -12.754 -80.8729
rradius 27.2212
rwrist 33.9179
rhand -20.0202 -28.2518
rfingers 7.12502
rthumb 6.32032 -58.1375
lclavicle 1.45113e-014 -2.26615e-014
lhumerus -14.937 -1.68404 86.681
lradius 15.555
lwrist 7.1277
lhand -23.5537 -5.83896
lfingers 7.12502
lthumb 2.90836 24.121
rfemur -22.0154 -6.20731 19.8166
rtibia 51.959
rfoot 23.7364 -5.93085
rtoes 24.72
lfemur -22.3941 8.0624 -15.5408
ltibia 50.1013
lfoot 23.2933 -1.01101
ltoes 5.76142
